<?xml version="1.0" standalone="no"?><!DOCTYPE svg PUBLIC "-//W3C//DTD SVG 1.1//EN" "http://www.w3.org/Graphics/SVG/1.1/DTD/svg11.dtd"><svg class="icon" width="48px" height="48.00px" viewBox="0 0 1024 1024" version="1.1" xmlns="http://www.w3.org/2000/svg"><path fill="#1DA57A" d="M822.784 396.224c-66.88 46.336-134.208 92.608-200.64 139.328C594.304 554.88 547.136 594.304 512.448 594.304L512 594.304 511.552 594.304c-34.688 0-81.856-39.424-109.76-58.752C335.36 488.896 268.032 442.56 201.6 396.224 171.2 375.68 127.872 327.232 127.872 288.192c0-41.984 22.72-78.016 68.608-78.016l630.976 0c37.312 0 68.608 30.848 68.608 68.608C896.128 326.784 860.544 370.112 822.784 396.224zM896.128 745.216c0 37.76-30.848 68.608-68.608 68.608L196.48 813.824c-37.76 0-68.608-30.848-68.608-68.608L127.872 404.8C140.736 419.008 155.328 431.36 171.2 442.112c71.104 48.448 143.168 96.896 213.056 147.904 36.032 26.624 80.576 59.2 127.296 59.2L512 649.216l0.448 0c46.72 0 91.328-32.576 127.296-59.2 69.888-50.56 141.952-99.456 213.504-147.904 15.424-10.752 30.016-23.104 42.88-37.312L896.128 745.216z" /></svg>